<svg width="50" height="50" viewBox="0 0 50 50" fill="none" xmlns="http://www.w3.org/2000/svg">
<rect width="50" height="50" rx="5" fill="#27357D"/>
<path d="M29.5524 12H19.4476C15.341 12 12 15.341 12 19.4476V29.5524C12 33.659 15.341 37 19.4476 37H29.5524C33.659 37 37 33.659 37 29.5524V19.4476C37 15.341 33.659 12 29.5524 12ZM34.485 29.5524C34.485 32.2766 32.2766 34.485 29.5524 34.485H19.4476C16.7234 34.485 14.515 32.2766 14.515 29.5524V19.4476C14.515 16.7234 16.7234 14.515 19.4476 14.515H29.5524C32.2766 14.515 34.485 16.7234 34.485 19.4476V29.5524Z" fill="white"/>
<path d="M24.5001 18.0312C20.9348 18.0312 18.0342 20.9318 18.0342 24.4971C18.0342 28.0623 20.9348 30.963 24.5001 30.963C28.0654 30.963 30.966 28.0624 30.966 24.4971C30.966 20.9318 28.0654 18.0312 24.5001 18.0312ZM24.5001 28.448C22.318 28.448 20.5492 26.6792 20.5492 24.4971C20.5492 22.3151 22.3181 20.5462 24.5001 20.5462C26.6821 20.5462 28.451 22.3151 28.451 24.4971C28.451 26.6791 26.6821 28.448 24.5001 28.448Z" fill="white"/>
<path d="M30.9781 19.63C31.8338 19.63 32.5274 18.9363 32.5274 18.0806C32.5274 17.2249 31.8338 16.5312 30.9781 16.5312C30.1224 16.5312 29.4287 17.2249 29.4287 18.0806C29.4287 18.9363 30.1224 19.63 30.9781 19.63Z" fill="white"/>
</svg>
