<svg width="50" height="50" viewBox="0 0 50 50" fill="none" xmlns="http://www.w3.org/2000/svg">
<rect width="50" height="50" rx="5" fill="#27357D"/>
<path fill-rule="evenodd" clip-rule="evenodd" d="M33.3576 15.6331C31.0075 13.2915 27.882 12.0014 24.5523 12C17.6911 12 12.1072 17.5571 12.1044 24.3872C12.1035 26.5706 12.6766 28.702 13.7659 30.5806L12 37L18.5988 35.2773C20.417 36.2644 22.4641 36.7845 24.5472 36.7852H24.5525C31.4128 36.7852 36.9974 31.2276 37 24.3971C37.0014 21.0869 35.7078 17.9746 33.3576 15.6331ZM24.5523 34.693H24.5479C22.6916 34.6922 20.8709 34.1957 19.2821 33.2577L18.9045 33.0345L14.9887 34.0568L16.0338 30.2572L15.7877 29.8677C14.7521 28.2283 14.2052 26.3335 14.2061 24.388C14.2083 18.7109 18.8496 14.0923 24.5564 14.0923C27.3199 14.0932 29.9176 15.1655 31.8709 17.1118C33.8242 19.058 34.8993 21.645 34.8984 24.3964C34.896 30.0738 30.2549 34.693 24.5523 34.693ZM30.2273 26.9813C29.9164 26.8263 28.3871 26.0777 28.1019 25.9743C27.8171 25.871 27.6095 25.8195 27.4023 26.1293C27.1949 26.4391 26.5989 27.1364 26.4174 27.3428C26.2359 27.5495 26.0546 27.5754 25.7435 27.4204C25.4325 27.2655 24.4303 26.9385 23.2423 25.8839C22.3177 25.0632 21.6936 24.0495 21.512 23.7398C21.3308 23.4297 21.5105 23.2784 21.6485 23.108C21.9852 22.692 22.3223 22.2557 22.426 22.0493C22.5298 21.8426 22.4778 21.6618 22.3999 21.507C22.3223 21.3521 21.7003 19.8285 21.4412 19.2085C21.1885 18.6052 20.9323 18.6866 20.7413 18.6772C20.5601 18.6682 20.3526 18.6664 20.1452 18.6664C19.9379 18.6664 19.6009 18.7437 19.3157 19.0538C19.0307 19.3637 18.2273 20.1125 18.2273 21.6361C18.2273 23.1596 19.3418 24.6315 19.4972 24.8381C19.6527 25.0447 21.6905 28.1712 24.8104 29.5119C25.5525 29.8311 26.1318 30.0214 26.5836 30.164C27.3288 30.3996 28.0066 30.3664 28.5426 30.2867C29.1402 30.1977 30.3826 29.5378 30.642 28.8148C30.9012 28.0918 30.9012 27.4721 30.8233 27.3428C30.7457 27.2138 30.5383 27.1364 30.2273 26.9813Z" fill="white"/>
</svg>
