<svg width="100" height="100" viewBox="0 0 100 100" fill="none" xmlns="http://www.w3.org/2000/svg">
<path d="M50 100C77.6142 100 100 77.6142 100 50C100 22.3858 77.6142 0 50 0C22.3858 0 0 22.3858 0 50C0 77.6142 22.3858 100 50 100Z" fill="#29A71A"/>
<path d="M72.0455 27.9542C66.8434 22.7002 59.935 19.4781 52.5665 18.8691C45.198 18.2601 37.8544 20.3042 31.8603 24.6328C25.8662 28.9614 21.6162 35.2895 19.877 42.4757C18.1377 49.6619 19.0236 57.233 22.375 63.8235L19.0852 79.7951C19.0511 79.9541 19.0501 80.1184 19.0824 80.2777C19.1147 80.4371 19.1794 80.5881 19.2727 80.7212C19.4094 80.9233 19.6044 81.0789 19.8318 81.1673C20.0593 81.2556 20.3082 81.2724 20.5455 81.2156L36.1989 77.5053C42.7708 80.7718 50.2885 81.6008 57.4143 79.8448C64.5401 78.0887 70.8118 73.8615 75.1134 67.9153C79.415 61.9692 81.4675 54.6898 80.9057 47.3723C80.344 40.0549 77.2043 33.174 72.0455 27.9542ZM67.1648 66.9087C63.5655 70.4979 58.9306 72.8672 53.9134 73.6827C48.8962 74.4981 43.7496 73.7187 39.1989 71.4542L37.0171 70.3746L27.4205 72.6474L27.4489 72.5281L29.4375 62.869L28.3693 60.761C26.0441 56.1944 25.2238 51.009 26.0261 45.9476C26.8283 40.8863 29.2118 36.2086 32.8352 32.5849C37.3881 28.0334 43.5623 25.4765 50 25.4765C56.4377 25.4765 62.6119 28.0334 67.1648 32.5849C67.2036 32.6293 67.2453 32.6711 67.2898 32.7099C71.7862 37.2731 74.2963 43.4288 74.2729 49.8351C74.2495 56.2413 71.6944 62.3785 67.1648 66.9087Z" fill="white"/>
<path d="M66.3128 59.8241C65.1367 61.6764 63.2787 63.9434 60.9435 64.5059C56.8526 65.4945 50.5742 64.54 42.7617 57.2559L42.6651 57.1707C35.7958 50.8014 34.0117 45.5002 34.4435 41.2957C34.6821 38.9093 36.6708 36.7502 38.3469 35.3411C38.6119 35.115 38.9261 34.9539 39.2645 34.8709C39.6028 34.7879 39.9559 34.7853 40.2955 34.8631C40.6351 34.941 40.9517 35.0972 41.2201 35.3193C41.4885 35.5414 41.7012 35.8233 41.8412 36.1423L44.3696 41.8241C44.5339 42.1925 44.5948 42.5987 44.5458 42.9991C44.4967 43.3995 44.3396 43.779 44.0912 44.0968L42.8128 45.7559C42.5385 46.0985 42.373 46.5153 42.3375 46.9527C42.3021 47.3902 42.3984 47.8282 42.6139 48.2105C43.3299 49.4661 45.0458 51.3127 46.9492 53.023C49.0855 54.9548 51.4549 56.7218 52.9549 57.3241C53.3562 57.4881 53.7975 57.5281 54.2218 57.439C54.6461 57.3498 55.034 57.1357 55.3355 56.8241L56.8185 55.3298C57.1046 55.0476 57.4605 54.8464 57.8498 54.7466C58.239 54.6467 58.6478 54.6519 59.0344 54.7616L65.0401 56.4661C65.3714 56.5678 65.675 56.7438 65.9279 56.9808C66.1807 57.2178 66.376 57.5094 66.4988 57.8334C66.6216 58.1575 66.6687 58.5053 66.6364 58.8503C66.6042 59.1953 66.4935 59.5284 66.3128 59.8241Z" fill="white"/>
</svg>
