<svg width="46" height="46" viewBox="0 0 46 46" fill="none" xmlns="http://www.w3.org/2000/svg">
<path d="M16.6189 25.379C16.6189 24.8028 16.1409 24.3359 15.5511 24.3359H11.825C11.2359 24.3359 10.7578 24.8028 10.7578 25.379V29.0221C10.7578 29.5991 11.2359 30.0662 11.825 30.0662H15.5511C16.1409 30.0662 16.6189 29.5991 16.6189 29.0221V25.379ZM25.931 25.379C25.931 24.8028 25.4529 24.3359 24.8643 24.3359H21.1377C20.5486 24.3359 20.0705 24.8028 20.0705 25.379V29.0221C20.0705 29.5991 20.5486 30.0662 21.1377 30.0662H24.8643C25.4529 30.0662 25.931 29.5991 25.931 29.0221V25.379ZM35.2435 25.379C35.2435 24.8028 34.7655 24.3359 34.1763 24.3359H30.4502C29.8604 24.3359 29.3825 24.8028 29.3825 25.379V29.0221C29.3825 29.5991 29.8604 30.0662 30.4502 30.0662H34.1763C34.7655 30.0662 35.2435 29.5991 35.2435 29.0221V25.379ZM16.6189 34.4858C16.6189 33.9086 16.1409 33.4421 15.5511 33.4421H11.825C11.2359 33.4421 10.7578 33.9086 10.7578 34.4858V38.1282C10.7578 38.7049 11.2359 39.1718 11.825 39.1718H15.5511C16.1409 39.1718 16.6189 38.7048 16.6189 38.1282V34.4858ZM25.931 34.4858C25.931 33.9086 25.4529 33.4421 24.8643 33.4421H21.1377C20.5486 33.4421 20.0705 33.9086 20.0705 34.4858V38.1282C20.0705 38.7049 20.5486 39.1718 21.1377 39.1718H24.8643C25.4529 39.1718 25.931 38.7048 25.931 38.1282V34.4858ZM35.2435 34.4858C35.2435 33.9086 34.7655 33.4421 34.1768 33.4421H30.4502C29.8604 33.4421 29.3825 33.9086 29.3825 34.4858V38.1282C29.3825 38.7049 29.8604 39.1718 30.4502 39.1718H34.1768C34.7655 39.1718 35.2435 38.7048 35.2435 38.1282V34.4858Z" fill="white"/>
<path d="M41.9056 5.12154V10.6861C41.9056 13.2012 39.819 15.228 37.2472 15.228H34.3087C31.7368 15.228 29.6225 13.2012 29.6225 10.6861V5.10156H16.3775V10.6861C16.3775 13.2012 14.2633 15.228 11.6918 15.228H8.75265C6.18104 15.228 4.09454 13.2012 4.09454 10.6861V5.12154C1.84692 5.18779 0 7.00643 0 9.24177V41.8528C0 44.1301 1.88768 46.0005 4.21664 46.0005H41.7834C44.1088 46.0005 46 44.1263 46 41.8528V9.24177C46 7.00643 44.1532 5.18779 41.9056 5.12154ZM40.5407 39.822C40.5407 40.8062 39.7246 41.6047 38.7178 41.6047H7.20197C6.19511 41.6047 5.37905 40.8062 5.37905 39.822V22.9773C5.37905 21.9927 6.19501 21.1942 7.20197 21.1942H38.7177C39.7245 21.1942 40.5406 21.9927 40.5406 22.9773L40.5407 39.822Z" fill="white"/>
<path d="M8.74312 12.2453H11.6498C12.5321 12.2453 13.2474 11.5469 13.2474 10.6842V1.56175C13.2474 0.69894 12.5321 0 11.6498 0H8.74312C7.86076 0 7.14551 0.69894 7.14551 1.56175V10.6842C7.14551 11.5469 7.86076 12.2453 8.74312 12.2453ZM34.272 12.2453H37.1787C38.0604 12.2453 38.7758 11.5469 38.7758 10.6842V1.56175C38.7759 0.69894 38.0605 0 37.1787 0H34.272C33.3899 0 32.6745 0.69894 32.6745 1.56175V10.6842C32.6745 11.5469 33.3899 12.2453 34.272 12.2453Z" fill="white"/>
</svg>
