<svg width="37" height="46" viewBox="0 0 37 46" fill="none" xmlns="http://www.w3.org/2000/svg">
<path d="M18.5 0C8.30033 0 0 7.79286 0 17.3739C0 30.9875 16.761 45.0438 17.4743 45.6341C17.7562 45.8694 18.1212 45.9996 18.4996 46C18.878 46.0004 19.2433 45.8708 19.5257 45.636C20.239 45.0438 37 30.9875 37 17.3739C37 7.79286 28.6997 0 18.5 0ZM18.5 26.8323C12.8328 26.8323 8.22222 22.5334 8.22222 17.2493C8.22222 11.9653 12.8328 7.66637 18.5 7.66637C24.1672 7.66637 28.7778 11.9653 28.7778 17.2493C28.7778 22.5334 24.1672 26.8323 18.5 26.8323Z" fill="white"/>
</svg>
