<svg width="46" height="46" viewBox="0 0 46 46" fill="none" xmlns="http://www.w3.org/2000/svg">
<path d="M43.6266 37.0683H33.3259C32.4409 37.0713 31.5641 36.8844 30.7463 36.5183C29.9285 36.1522 29.1859 35.6142 28.5617 34.9355C27.6753 33.9758 16.1154 21.477 15.6734 20.9838L5.29881 9.76028C5.13996 9.60172 4.93174 9.51367 4.7156 9.51367C4.49945 9.51367 4.29124 9.60172 4.13238 9.76028L0.797387 13.3771C0.289859 13.928 0.00488281 14.6742 0.00488281 15.452C0.00488281 16.2299 0.289859 16.976 0.797387 17.527L24.6681 43.3421C24.9584 43.6614 25.2715 43.9556 25.6045 44.2219C27.0452 45.3818 28.7947 46.0054 30.5906 45.9991H41.4006C42.6203 45.9982 43.7898 45.4736 44.6523 44.5406C45.5148 43.6075 45.9997 42.3423 46.0006 41.0227V39.672C46.0015 38.9873 45.7527 38.3298 45.3082 37.8423C44.8638 37.3549 44.2595 37.0767 43.6266 37.0683Z" fill="#202020"/>
<path d="M16.8311 19.7317L17.3568 20.3004C17.5375 17.24 17.9975 9.94776 18.17 6.98858L18.3425 4.18936C18.384 3.39064 18.2012 2.59702 17.8183 1.91267C17.4354 1.22831 16.8701 0.685189 16.1968 0.354592C15.5234 0.0239945 14.7734 -0.0786325 14.0451 0.0601806C13.3169 0.198994 12.6444 0.57276 12.1161 1.13242L5.77464 7.99275C6.02604 8.11142 6.25455 8.28024 6.44821 8.49039L16.8311 19.7317ZM33.3253 35.2919H42.1064C38.8712 31.3312 36.2699 26.814 34.4096 21.9267C33.6991 22.7051 32.1573 24.3562 31.436 25.1436C31.2814 25.3097 31.072 25.4026 30.854 25.4018C30.6361 25.4009 30.4273 25.3064 30.2737 25.1391C30.1201 24.9718 30.0343 24.7453 30.0351 24.5095C30.0358 24.2737 30.1232 24.0478 30.2778 23.8817L33.7771 20.0961C33.0707 17.99 32.471 16.1327 31.9618 14.5332L27.1893 19.6962C27.1143 19.7805 27.0244 19.8476 26.9249 19.8935C26.8254 19.9393 26.7183 19.9629 26.6102 19.9629C26.502 19.9629 26.395 19.9393 26.2955 19.8935C26.1959 19.8476 26.106 19.7805 26.031 19.6962C25.9549 19.614 25.8945 19.5163 25.8533 19.4088C25.812 19.3013 25.7908 19.1861 25.7908 19.0697C25.7908 18.9533 25.812 18.8381 25.8533 18.7306C25.8945 18.623 25.9549 18.5254 26.031 18.4432L31.3868 12.6492C30.5119 9.73715 30.0215 6.70155 26.7621 6.6509C26.012 6.65198 25.2782 6.88847 24.6498 7.33169C24.0214 7.77492 23.5253 8.40585 23.2218 9.14798C22.7404 10.4187 21.4557 10.6836 20.2975 10.5698C19.8917 10.6231 19.5106 10.201 19.5828 10.8631L19.5746 11.0497C19.4818 12.3809 18.9816 20.8381 18.9011 21.98L29.7193 33.6834C30.1922 34.1962 30.7544 34.6023 31.3734 34.8784C31.9923 35.1545 32.6558 35.295 33.3253 35.2919ZM23.5093 44.5959L23.1643 44.2227H0.821428C0.603572 44.2227 0.394638 44.3163 0.240591 44.483C0.0865432 44.6496 0 44.8757 0 45.1114C0 45.347 0.0865432 45.5731 0.240591 45.7397C0.394638 45.9064 0.603572 46 0.821428 46H25.0946C24.516 45.6025 23.9837 45.1311 23.5093 44.5959ZM13.1428 38.8482C13.3607 38.8482 13.5696 38.7546 13.7237 38.5879C13.8777 38.4213 13.9643 38.1952 13.9643 37.9596C13.9643 37.7239 13.8777 37.4978 13.7237 37.3312C13.5696 37.1645 13.3607 37.0709 13.1428 37.0709H0.821428C0.603572 37.0709 0.394638 37.1645 0.240591 37.3312C0.0865432 37.4978 0 37.7239 0 37.9596C0 38.1952 0.0865432 38.4213 0.240591 38.5879C0.394638 38.7546 0.603572 38.8482 0.821428 38.8482H13.1428Z" fill="#202020"/>
</svg>
