<svg width="1124" height="467" viewBox="0 0 1124 467" fill="none" xmlns="http://www.w3.org/2000/svg" style="">
<path d="M18 172.5L32.5884 188C33.5197 188.99 34.6429 189.779 35.8894 190.32L59.3643 200.507C60.1186 200.834 60.9103 201.068 61.7215 201.201L97.9353 207.16C99.297 207.384 100.598 207.888 101.755 208.639L138.828 232.697C143.375 235.648 149.446 234.438 152.515 229.969L174.334 198.198C175.103 197.078 176.093 196.126 177.242 195.401L205.009 177.887C206.944 176.666 209.24 176.146 211.512 176.413L225 178H273.046C278.743 178 283.289 173.247 283.036 167.556L278.971 76.0989C278.716 70.3494 283.354 65.5714 289.108 65.656L341.716 66.4296C344.346 66.4683 346.5 64.3463 346.5 61.7151V61.7151C346.5 59.111 348.611 57 351.215 57H443.631C446.704 57 449.607 55.5864 451.503 53.1666L466.305 34.2704C469.521 30.1649 475.352 29.2202 479.699 32.1001L699.166 177.473C703.14 180.105 704.704 185.176 702.902 189.589L650.754 317.353C648.322 323.31 640.98 325.454 635.726 321.742L599.538 296.178C595.078 293.027 588.915 294.037 585.694 298.445L526.073 380.032C525.363 381.003 524.485 381.838 523.479 382.496L511.882 390.094C510.967 390.694 510.156 391.44 509.482 392.302L498 407L474.814 441.38C471.64 446.085 465.191 447.209 460.613 443.855L320 340.832C318.372 339.639 316.42 338.966 314.402 338.903L295.827 338.323C290.179 338.146 285.799 333.329 286.159 327.689L291 252L293.159 238.429C293.931 233.574 298.119 230 303.035 230H322.5H340.5C346.023 230 350.5 234.477 350.5 240V274.5V294.974C350.5 298.136 351.996 301.112 354.533 302.999L401 337.551C405.422 340.84 411.671 339.93 414.973 335.518L465.5 268" stroke="white" stroke-width="6" stroke-linecap="round" class="tQgUsHBB_0"></path>
<style data-made-with="vivus-instant">.tQgUsHBB_0{stroke-dasharray:1915 1917;stroke-dashoffset:1916;animation:tQgUsHBB_draw_0 6800ms ease-in-out 0ms infinite,tQgUsHBB_fade 6800ms linear 0ms infinite;}@keyframes tQgUsHBB_draw{100%{stroke-dashoffset:0;}}@keyframes tQgUsHBB_fade{0%{stroke-opacity:0.5;}94.11764705882354%{stroke-opacity:1;}100%{stroke-opacity:0;}}@keyframes tQgUsHBB_draw_0{5.88235294117647%{stroke-dashoffset: 1916}50%{ stroke-dashoffset: 0;}100%{ stroke-dashoffset: 0;}}</style></svg>
