<svg width="1124" height="467" viewBox="0 0 1124 467" fill="none" xmlns="http://www.w3.org/2000/svg" style="">
<path d="M12 173.5L49.1907 197.34C50.3833 198.105 51.7247 198.607 53.126 198.814L92.5812 204.643C94.1703 204.877 95.6795 205.492 96.981 206.433L134.333 233.454C138.634 236.565 144.617 235.774 147.961 231.651L177.782 194.886C178.259 194.297 178.802 193.765 179.399 193.299L203.584 174.443C206.327 172.304 209.986 171.745 213.244 172.966L222.18 176.317C223.382 176.768 224.66 176.983 225.943 176.951L273.534 175.751C279.043 175.612 283.401 171.043 283.279 165.533L281.221 72.4863C281.099 66.9692 285.469 62.3961 290.986 62.2678L341.252 61.0988C343.614 61.0439 345.5 59.1135 345.5 56.7511V56.7511C345.5 54.3878 347.387 52.4571 349.75 52.4034L411.5 51L441.505 52.2164C445.705 52.3867 449.35 55.165 450.627 59.1694L464.59 102.945C466.002 107.37 464.18 112.185 460.193 114.568L386.879 158.377C385.641 159.117 384.258 159.58 382.824 159.735L356.925 162.535C351.848 163.084 348 167.37 348 172.477V226.5V259V286.095C348 289.189 349.432 292.109 351.878 294.003L402.05 332.845C406.433 336.239 412.742 335.418 416.112 331.016L465.5 266.5" stroke="white" stroke-width="6" class="jEYWklHT_0"></path>
<path fill="#2B3CA2" d="M4,174A8,8 0,1,1 20,174A8,8 0,1,1 4,174" class="jEYWklHT_1"></path>
<path fill="#2B3CA2" d="M456,269A8,8 0,1,1 472,269A8,8 0,1,1 456,269" class="jEYWklHT_2"></path>
<style data-made-with="vivus-instant">.jEYWklHT_0{stroke-dasharray:1071 1073;stroke-dashoffset:1072;animation:jEYWklHT_draw_0 7900ms ease-in-out 0ms infinite,jEYWklHT_fade 7900ms linear 0ms infinite;}.jEYWklHT_1{stroke-dasharray:51 53;stroke-dashoffset:52;animation:jEYWklHT_draw_1 7900ms ease-in-out 0ms infinite,jEYWklHT_fade 7900ms linear 0ms infinite;}.jEYWklHT_2{stroke-dasharray:51 53;stroke-dashoffset:52;animation:jEYWklHT_draw_2 7900ms ease-in-out 0ms infinite,jEYWklHT_fade 7900ms linear 0ms infinite;}@keyframes jEYWklHT_draw{100%{stroke-dashoffset:0;}}@keyframes jEYWklHT_fade{0%{stroke-opacity:1;}94.9367088607595%{stroke-opacity:1;}100%{stroke-opacity:0;}}@keyframes jEYWklHT_draw_0{6.329113924050633%{stroke-dashoffset: 1072}40.94549212089899%{ stroke-dashoffset: 0;}100%{ stroke-dashoffset: 0;}}@keyframes jEYWklHT_draw_1{40.94549212089899%{stroke-dashoffset: 52}42.62464479462671%{ stroke-dashoffset: 0;}100%{ stroke-dashoffset: 0;}}@keyframes jEYWklHT_draw_2{42.62464479462671%{stroke-dashoffset: 52}44.303797468354425%{ stroke-dashoffset: 0;}100%{ stroke-dashoffset: 0;}}</style></svg>
