<svg width="28" height="28" viewBox="0 0 28 28" fill="none" xmlns="http://www.w3.org/2000/svg">
<path fill-rule="evenodd" clip-rule="evenodd" d="M14 2.11435C10.858 2.11435 7.84475 3.33998 5.62305 5.5216C3.40134 7.70322 2.1532 10.6621 2.1532 13.7474C2.1532 16.8327 3.40134 19.7916 5.62305 21.9732C7.84475 24.1549 10.858 25.3805 14 25.3805C17.142 25.3805 20.1552 24.1549 22.377 21.9732C24.5987 19.7916 25.8468 16.8327 25.8468 13.7474C25.8468 10.6621 24.5987 7.70322 22.377 5.5216C20.1552 3.33998 17.142 2.11435 14 2.11435ZM0 13.7474C0 6.15472 6.2678 0 14 0C21.7322 0 28 6.15472 28 13.7474C28 21.3401 21.7322 27.4948 14 27.4948C6.2678 27.4948 0 21.3401 0 13.7474Z" fill="#474747"/>
<path fill-rule="evenodd" clip-rule="evenodd" d="M13.9999 7.75586C14.2858 7.75586 14.56 7.86738 14.7621 8.0659C14.9643 8.26442 15.0779 8.53367 15.0779 8.81441V14.4536C15.0779 14.7343 14.9643 15.0036 14.7621 15.2021C14.56 15.4006 14.2858 15.5122 13.9999 15.5122C13.714 15.5122 13.4398 15.4006 13.2376 15.2021C13.0354 15.0036 12.9219 14.7343 12.9219 14.4536V8.81304C12.9222 8.53253 13.036 8.26364 13.2381 8.06542C13.4402 7.8672 13.7142 7.75586 13.9999 7.75586Z" fill="#474747"/>
<path d="M15.4363 18.6839C15.4363 18.8692 15.3991 19.0526 15.3269 19.2237C15.2548 19.3948 15.1489 19.5503 15.0156 19.6813C14.8822 19.8123 14.7238 19.9162 14.5496 19.987C14.3753 20.0579 14.1885 20.0944 13.9999 20.0944C13.8112 20.0944 13.6245 20.0579 13.4502 19.987C13.2759 19.9162 13.1176 19.8123 12.9842 19.6813C12.8508 19.5503 12.745 19.3948 12.6728 19.2237C12.6006 19.0526 12.5635 18.8692 12.5635 18.6839C12.5635 18.3098 12.7148 17.9511 12.9842 17.6866C13.2536 17.422 13.6189 17.2734 13.9999 17.2734C14.3808 17.2734 14.7462 17.422 15.0156 17.6866C15.2849 17.9511 15.4363 18.3098 15.4363 18.6839Z" fill="#474747"/>
</svg>
